<?xml version="1.0" encoding="utf-8"?>
<!-- Generator: Adobe Illustrator 26.2.1, SVG Export Plug-In . SVG Version: 6.00 Build 0)  -->
<svg version="1.1" xmlns="http://www.w3.org/2000/svg" xmlns:xlink="http://www.w3.org/1999/xlink" x="0px" y="0px"
	 viewBox="0 0 2984.8 640" style="enable-background:new 0 0 2984.8 640;" xml:space="preserve">
<style type="text/css">
	.st0{display:none;}
	.st1{display:inline;}
	.st2{fill:#156AB3;}
	.st3{fill:#E36B09;}
</style>
<g id="Layer_1" class="st0">
	<rect x="205.5" y="23.5" class="st1" width="4052.4" height="4052.4"/>
</g>
<g id="Layer_2">
	<g>
		<g>
			<g>
				<path class="st2" d="M830.4,456.2V289.9h60.4v23.8h111.6c22.8,0,28.1-5.2,28.1-27.6v-35.9c0-22.5-5.2-27.6-28.1-27.6h-54.5
					v-50.2h73c39.7,0,60.5,13.5,67.4,43.8c0.6,2.3,1,4.8,1.3,6.9c0.9,6.1,1.3,12.4,1.3,19.3v50c0,7.6-0.5,14.7-1.6,21.1
					c-0.3,2.2-0.8,4.2-1.2,6v0.1l-0.2,0.7c-7.3,28.8-28.6,42.2-67.1,42.2H890.8v93.8H830.4z"/>
				<path class="st2" d="M1083.3,217.3c-6.4-28.3-26-39.8-62.4-39.8h-67.8v39.8h49.3c25.5,0,33.3,7.4,33.3,32.8V286
					c0,25.4-7.8,32.8-33.3,32.8H885.6v-23.8h-50V451h50v-93.8h135.3c35.7,0,55.3-11.2,62.1-38.3v-0.1c0.4-2,0.9-4,1.2-6.3
					c1-6,1.5-12.8,1.5-20.3v-50c0-6.8-0.4-12.9-1.2-18.5C1084.2,221.5,1083.8,219.3,1083.3,217.3z"/>
				<polygon class="st2" points="2144,456.1 1974,263 1974,456.1 1915.3,456.1 1915.3,172.2 1965,172.2 2132.5,362.2 2132.5,172.2 
					2191.3,172.2 2191.3,456.1 				"/>
				<polygon class="st2" points="2137.7,375.9 1962.7,177.4 1920.4,177.4 1920.4,450.9 1968.9,450.9 1968.9,249.3 2146.3,450.9 
					2186.2,450.9 2186.2,177.4 2137.7,177.4 				"/>
				<polygon class="st2" points="2231,456.1 2231,172.2 2464.9,172.2 2464.9,224.4 2291.4,224.4 2291.4,284.3 2449.2,284.3 
					2449.2,333.4 2291.4,333.4 2291.4,403.9 2468.8,403.9 2468.8,456.1 				"/>
				<polygon class="st2" points="2286.2,328.3 2444.1,328.3 2444.1,289.5 2286.2,289.5 2286.2,219.2 2459.7,219.2 2459.7,177.4 
					2236.2,177.4 2236.2,450.9 2463.6,450.9 2463.6,409.1 2286.2,409.1 				"/>
				<polygon class="st2" points="2578,456.1 2578,227.1 2477.2,227.1 2477.2,172.2 2739.2,172.2 2739.2,227.1 2638.4,227.1 
					2638.4,456.1 				"/>
				<polygon class="st2" points="2482.4,177.4 2482.4,221.9 2583.2,221.9 2583.2,450.9 2633.2,450.9 2633.2,221.9 2734.1,221.9 
					2734.1,177.4 				"/>
				<polygon class="st2" points="1615.3,190.8 1606.5,180.1 1596.6,167.9 1670.2,167.9 1670.3,168 1671.4,168 1675.7,173.7 
					1679.3,178.4 1743.5,256.1 1705,302.4 				"/>
				<polygon class="st2" points="1619.3,187.6 1705.1,294.2 1736.7,256.1 1675.2,181.6 1671.5,176.8 1668.8,173.2 1668.2,173.2 
					1668.1,173.1 1607.5,173.1 1610.5,176.8 				"/>
				<polygon class="st2" points="1831.3,455.3 1829.7,453.3 1829.2,452.6 1753.5,359.1 1792.4,313 1852,387.3 1906.5,454.5 
					1905.2,454.5 1905.9,455.3 				"/>
				<polygon class="st2" points="1848,390.5 1792.3,321.2 1760.3,359.1 1833.2,449.3 1833.2,449.3 1833.8,450.1 1894.8,450.1 
					1894.1,449.3 1895.5,449.3 				"/>
				<polygon class="st3" points="1504.1,558.2 1594.7,449.3 1648.4,385.4 1677.1,351 1745.7,268.3 1825.9,173.5 1917.3,63.4 
					1989.8,63.4 1892.5,180.1 1854.8,224.2 1712.1,393.5 1683.2,427.7 1659.4,455.9 1574,558.2 				"/>
				<polygon class="st3" points="1747.4,343.5 1850.9,220.8 1888.5,176.8 1978.7,68.6 1919.7,68.6 1829.9,176.8 1749.6,271.6 
					1681.1,354.3 1652.4,388.7 1598.7,452.6 1515.2,553 1571.6,553 1655.4,452.6 1679.3,424.4 1708.1,390.1 				"/>
				<polygon class="st2" points="1745.6,456.2 1744.9,455.6 1696,455.6 1684.7,440.4 1720.5,398 1764.5,456.2 				"/>
				<polygon class="st2" points="1746.7,450.4 1747.4,451 1754,451 1720.3,406.3 1691.3,440.6 1698.6,450.4 				"/>
				<polygon class="st2" points="1319.7,456.2 1319.7,335.4 1172.2,335.4 1172.2,456.2 1111.8,456.2 1111.8,172.2 1172.2,172.2 
					1172.2,280.4 1319.7,280.4 1319.7,172.2 1380.1,172.2 1380.1,384.2 1380.5,384.3 1380.5,456.2 				"/>
				<polygon class="st2" points="1374.9,177.4 1324.9,177.4 1324.9,285.6 1167,285.6 1167,177.4 1117,177.4 1117,451 1167,451 
					1167,330.2 1324.9,330.2 1324.9,451 1375.3,451 1375.3,384.3 1374.9,385.5 				"/>
				<polygon class="st2" points="1390.7,455.8 1446.2,311.7 1446.2,311.7 1494.2,180.2 1488.8,172.8 1538.8,172.8 1539.6,172.2 
					1560.2,172.2 1554.5,178.1 1576.7,207.6 1616.9,261.9 1665.8,325.5 1675.5,338.3 1640,381 1608.9,339.6 1608.8,339.6 
					1607.2,337.4 1533.9,234.9 1448.4,455.8 				"/>
				<polygon class="st2" points="1532.5,224 1532.6,224.1 1611.4,334.4 1611.5,334.4 1640.2,372.6 1668.9,338.2 1661.7,328.6 
					1612.7,265 1572.5,210.7 1547.6,177.6 1547.8,177.4 1547.5,177.4 1541.2,177.4 1540.4,178 1500.6,178 1499.1,178 1499,178 
					1500,179.4 1453.7,306.3 1448.8,319.8 1448.7,319.8 1398.3,450.7 1439.4,450.7 1444.1,450.7 1444.8,450.7 1532.5,224 				"/>
				<rect x="821.1" y="163.1" class="st3" width="114.8" height="114.8"/>
				<polygon class="st3" points="930.7,272.7 930.7,211.8 930.7,168.3 826.3,168.3 826.3,272.7 881.2,272.7 				"/>
			</g>
			<g>
				<g>
					<path class="st3" d="M416.9,338.3c0-3.3,0-6.4,0-9.4c0-21.7,0-43.4-0.1-65.1c0-2.4,0.6-3.9,2.6-5.3
						c30-21.2,59.9-42.5,89.8-63.8c0.9-0.6,1.7-1.3,2.9-2.2c-6.9-4.9-13.5-9.7-20.2-14.4c-33.4-23.8-66.9-47.5-100.3-71.4
						c-2.2-1.6-3.5-1.7-5.8-0.1c-19.5,14-39,27.9-58.6,41.8c-0.8,0.6-1.7,1.1-2.5,1.6c-1-0.6-0.6-1.5-0.6-2.2c0-24.3,0-48.7-0.1-73
						c0-1.9,0.5-3.1,2.1-4.2c9.2-6.4,18.4-13,27.5-19.6c1.3-0.9,2.5-1.3,4.1-1.3c20.6,0,41.2,0,61.7,0c1.6,0,2.8,0.4,4.1,1.3
						c34.2,24.4,68.5,48.8,102.8,73.1c1.3,1,1.9,2,1.9,3.6c0,43.2,0,86.4,0,129.6c0,1.3-0.2,2.3-1.4,3.2
						c-36.3,25.8-72.6,51.6-108.9,77.4C417.9,338,417.6,338,416.9,338.3z"/>
					<path class="st3" d="M388.9,139.9c0,1.5,0,2.5,0,3.6c0,70.6,0,198.6,0.1,269.2c0,2.4-0.6,3.9-2.6,5.4
						c-20,14.1-39.9,28.3-59.8,42.4c-0.5,0.4-1.1,0.7-1.7,1.1c-1.1-0.6-0.6-1.7-0.6-2.5c0-71.2,0-199.7,0-270.9c0-1.7,0.1-3,1.7-4.1
						c20.6-14.6,41.1-29.2,61.7-43.8C387.8,140.2,388.1,140.2,388.9,139.9z"/>
					<path class="st2" d="M231.7,461.7c0-1.8,0-3,0-4.2c0-48.4,0-154.2,0-202.6c0-2.2,0.3-3.7,2.3-5.2c19.9-14,39.7-28.1,59.5-42.2
						c0.7-0.5,1.3-1.3,2.6-1.2c0,1,0,1.9,0,2.9c0,48.9,0,155.1,0,204c0,2-0.5,3.3-2.2,4.5c-20.2,14.3-40.4,28.7-60.6,43
						C233.1,461,232.7,461.2,231.7,461.7z"/>
				</g>
				<g>
					<path class="st2" d="M530.8,287.9c0,3.3,0,6.4,0,9.4c0,21.7,0,43.4,0.1,65.1c0,2.4-0.6,3.9-2.6,5.3
						c-30,21.2-59.9,42.5-89.8,63.8c-0.9,0.6-1.7,1.3-2.9,2.2c6.9,4.9,13.5,9.7,20.2,14.4c33.4,23.8,66.9,47.5,100.3,71.4
						c2.2,1.6,3.5,1.7,5.8,0.1c19.5-14,39-27.9,58.6-41.8c0.8-0.6,1.7-1.1,2.5-1.6c1,0.6,0.6,1.5,0.6,2.2c0,24.3,0,48.7,0.1,73
						c0,1.9-0.5,3.1-2.1,4.2c-9.2,6.4-18.4,13-27.5,19.6c-1.3,0.9-2.5,1.3-4.1,1.3c-20.6,0-41.2,0-61.7,0c-1.6,0-2.8-0.4-4.1-1.3
						c-34.2-24.4-68.5-48.8-102.8-73.1c-1.3-1-1.9-2-1.9-3.6c0-43.2,0-86.4,0-129.6c0-1.3,0.2-2.3,1.4-3.2
						c36.3-25.8,72.6-51.6,108.9-77.4C529.8,288.2,530.1,288.1,530.8,287.9z"/>
					<path class="st2" d="M558.9,486.3c0-1.5,0-2.5,0-3.6c0-70.6,0-198.6-0.1-269.2c0-2.4,0.6-3.9,2.6-5.4
						c20-14.1,39.9-28.3,59.8-42.4c0.5-0.4,1.1-0.7,1.7-1.1c1.1,0.6,0.6,1.7,0.6,2.5c0,71.2,0,199.7,0,270.9c0,1.7-0.1,3-1.7,4.1
						c-20.6,14.6-41.1,29.2-61.7,43.8C559.9,486,559.7,486,558.9,486.3z"/>
					<path class="st3" d="M716,164.5c0,1.8,0,3,0,4.2c0,48.4,0,154.2,0,202.6c0,2.2-0.3,3.7-2.3,5.2c-19.9,14-39.7,28.1-59.5,42.2
						c-0.7,0.5-1.3,1.3-2.6,1.2c0-1,0-1.9,0-2.9c0-48.9,0-155.1,0-204c0-2,0.5-3.3,2.2-4.5c20.2-14.3,40.4-28.7,60.6-43
						C714.7,165.2,715.1,165,716,164.5z"/>
				</g>
			</g>
		</g>
		<g>
			<path class="st3" d="M1774,476.1h-72.9v111.5h72.9c24.9,0,38.6-13.7,38.6-38.6v-34.3C1812.6,489.8,1798.9,476.1,1774,476.1z
				 M1730.1,562.5v-61.5h38.2c10.2,0,15.1,4.9,15.1,15.1v31.2c0,10.2-4.9,15.1-15.1,15.1H1730.1z"/>
			<rect x="1857.4" y="476.1" class="st3" width="29.4" height="111.5"/>
			<path class="st3" d="M2013.3,476.1H1963c-21.4,0-31.4,10-31.4,31.4v48.7c0,21.4,10,31.4,31.4,31.4h50.3c21.4,0,31.4-10,31.4-31.4
				v-31.7h-56.2V547h28.1v5.1c0,8.9-2.8,11.7-11.7,11.7h-32.5c-8.9,0-11.7-2.8-11.7-11.7v-40c0-8.8,2.8-11.7,11.7-11.7h31.5
				c8.9,0,11.7,2.8,11.7,11.7v3.8h29.1v-8.4C2044.6,486,2034.7,476.1,2013.3,476.1z"/>
			<rect x="2089.5" y="476.1" class="st3" width="29.4" height="111.5"/>
			<polygon class="st3" points="2163.7,502 2201.5,502 2201.5,587.5 2230.5,587.5 2230.5,502 2268.3,502 2268.3,476.1 2163.7,476.1 
							"/>
			<path class="st3" d="M2362.5,476.1l-49.4,111.5h30.9l8-20.1h51.1l8,20.1h32.3l-49.2-111.5H2362.5z M2360.8,545.2l16.6-41.8
				l16.8,41.8H2360.8z"/>
			<polygon class="st3" points="2517.2,476.1 2488.1,476.1 2488.1,587.5 2575.9,587.5 2575.9,561.6 2517.2,561.6 			"/>
			<path class="st3" d="M2706.2,520.7l-47.1-4.4c-6.4-0.6-7.7-2-7.7-7.6v-2c0-5.8,1.9-7.6,7.6-7.6h33.7c5.8,0,7.6,1.9,7.6,7.6v3.4
				h28.1v-9.5c0-16.7-7.8-24.5-24.5-24.5h-57.1c-16.7,0-24.5,7.8-24.5,24.5v15c0,15.9,7.1,23,24.4,24.5l47.1,4.4
				c6.3,0.6,7.7,2,7.7,7.6v4.8c0,5.8-1.9,7.6-7.6,7.6h-37.5c-5.8,0-7.6-1.9-7.6-7.6v-5.3h-28.1V563c0,16.7,7.8,24.5,24.5,24.5h60.9
				c16.7,0,24.5-7.8,24.5-24.5v-17.8C2730.6,529.3,2723.5,522.2,2706.2,520.7z"/>
		</g>
	</g>
	<g>
	</g>
	<g>
	</g>
	<g>
	</g>
	<g>
	</g>
	<g>
	</g>
	<g>
	</g>
</g>
</svg>
