<?xml version="1.0" encoding="utf-8"?>
<!-- Generator: Adobe Illustrator 26.2.1, SVG Export Plug-In . SVG Version: 6.00 Build 0)  -->
<svg version="1.1" xmlns="http://www.w3.org/2000/svg" xmlns:xlink="http://www.w3.org/1999/xlink" x="0px" y="0px"
	 viewBox="0 0 2339.4 640" style="enable-background:new 0 0 2339.4 640;" xml:space="preserve">
<style type="text/css">
	.st0{display:none;}
	.st1{display:inline;}
	.st2{fill:#156AB3;}
	.st3{fill:#E36B09;}
</style>
<g id="Layer_1" class="st0">
	<rect x="-440" y="23.5" class="st1" width="4052.4" height="4052.4"/>
</g>
<g id="Layer_2">
	<g>
		<g>
			<g>
				<path class="st2" d="M185,450.7V284.4h60.4v23.8h111.6c22.8,0,28.1-5.2,28.1-27.6v-35.9c0-22.5-5.2-27.6-28.1-27.6h-54.5v-50.2
					h73c39.7,0,60.5,13.5,67.4,43.8c0.6,2.3,1,4.8,1.3,6.9c0.9,6.1,1.3,12.4,1.3,19.3v50c0,7.6-0.5,14.7-1.6,21.1
					c-0.3,2.2-0.8,4.2-1.2,6v0.1l-0.2,0.7c-7.3,28.8-28.6,42.2-67.1,42.2H245.3v93.8H185z"/>
				<path class="st2" d="M437.8,211.8c-6.4-28.3-26-39.8-62.4-39.8h-67.8v39.8h49.3c25.5,0,33.3,7.4,33.3,32.8v35.9
					c0,25.4-7.8,32.8-33.3,32.8H240.1v-23.8h-50v155.9h50v-93.8h135.3c35.7,0,55.3-11.2,62.1-38.3v-0.1c0.4-2,0.9-4,1.2-6.3
					c1-6,1.5-12.8,1.5-20.3v-50c0-6.8-0.4-12.9-1.2-18.5C438.7,216,438.4,213.8,437.8,211.8z"/>
				<polygon class="st2" points="1498.5,450.6 1328.6,257.5 1328.6,450.6 1269.8,450.6 1269.8,166.7 1319.6,166.7 1487.1,356.7 
					1487.1,166.7 1545.9,166.7 1545.9,450.6 				"/>
				<polygon class="st2" points="1492.3,370.4 1317.2,171.9 1275,171.9 1275,445.4 1323.4,445.4 1323.4,243.8 1500.9,445.4 
					1540.7,445.4 1540.7,171.9 1492.3,171.9 				"/>
				<polygon class="st2" points="1585.6,450.6 1585.6,166.7 1819.4,166.7 1819.4,218.9 1645.9,218.9 1645.9,278.9 1803.8,278.9 
					1803.8,327.9 1645.9,327.9 1645.9,398.4 1823.3,398.4 1823.3,450.6 				"/>
				<polygon class="st2" points="1640.7,322.8 1798.6,322.8 1798.6,284 1640.7,284 1640.7,213.7 1814.3,213.7 1814.3,171.9 
					1590.8,171.9 1590.8,445.4 1818.2,445.4 1818.2,403.6 1640.7,403.6 				"/>
				<polygon class="st2" points="1932.6,450.6 1932.6,221.6 1831.7,221.6 1831.7,166.7 2093.8,166.7 2093.8,221.6 1993,221.6 
					1993,450.6 				"/>
				<polygon class="st2" points="1836.9,171.9 1836.9,216.4 1937.7,216.4 1937.7,445.4 1987.8,445.4 1987.8,216.4 2088.6,216.4 
					2088.6,171.9 				"/>
				<polygon class="st2" points="969.8,185.3 961.1,174.6 951.2,162.4 1024.8,162.4 1024.9,162.5 1025.9,162.5 1030.2,168.2 
					1033.8,172.9 1098,250.6 1059.6,296.9 				"/>
				<polygon class="st2" points="973.9,182.1 1059.6,288.7 1091.3,250.6 1029.7,176.1 1026.1,171.3 1023.3,167.7 1022.7,167.7 
					1022.6,167.6 962,167.6 965.1,171.3 				"/>
				<polygon class="st2" points="1185.9,449.8 1184.3,447.8 1183.7,447.1 1108.1,353.6 1146.9,307.5 1206.6,381.8 1261,449 
					1259.8,449 1260.4,449.8 				"/>
				<polygon class="st2" points="1202.5,385 1146.8,315.7 1114.8,353.7 1187.7,443.8 1187.8,443.8 1188.4,444.6 1249.4,444.6 
					1248.7,443.8 1250,443.8 				"/>
				<polygon class="st3" points="858.7,552.7 949.2,443.8 1003,379.9 1031.6,345.5 1100.2,262.8 1180.5,168 1271.9,57.9 
					1344.3,57.9 1247,174.6 1209.4,218.7 1066.6,388 1037.8,422.2 1014,450.4 928.6,552.7 				"/>
				<polygon class="st3" points="1102,338 1205.4,215.3 1243.1,171.3 1333.3,63.1 1274.3,63.1 1184.4,171.3 1104.2,266.1 
					1035.6,348.8 1007,383.2 953.2,447.1 869.7,547.5 926.1,547.5 1010,447.1 1033.8,418.9 1062.7,384.6 				"/>
				<polygon class="st2" points="1100.1,450.7 1099.4,450.1 1050.5,450.1 1039.2,434.9 1075.1,392.5 1119,450.7 				"/>
				<polygon class="st2" points="1101.3,444.9 1102,445.5 1108.6,445.5 1074.9,400.8 1045.8,435.1 1053.1,444.9 				"/>
				<polygon class="st2" points="674.2,450.7 674.2,329.9 526.7,329.9 526.7,450.7 466.3,450.7 466.3,166.7 526.7,166.7 
					526.7,274.9 674.2,274.9 674.2,166.7 734.6,166.7 734.6,378.7 735.1,378.8 735.1,450.7 				"/>
				<polygon class="st2" points="729.4,171.9 679.4,171.9 679.4,280.1 521.5,280.1 521.5,171.9 471.5,171.9 471.5,445.5 
					521.5,445.5 521.5,324.7 679.4,324.7 679.4,445.5 729.9,445.5 729.9,378.8 729.4,380 				"/>
				<polygon class="st2" points="745.3,450.3 800.8,306.2 800.8,306.3 848.7,174.7 843.3,167.3 893.4,167.3 894.2,166.7 
					914.8,166.7 909,172.6 931.2,202.1 971.5,256.4 1020.3,320 1030,332.8 994.6,375.5 963.5,334.1 963.4,334.1 961.7,332 
					888.5,229.4 802.9,450.3 				"/>
				<polygon class="st2" points="887.1,218.5 887.1,218.6 966,328.9 966,328.9 994.8,367.1 1023.4,332.7 1016.2,323.2 967.3,259.5 
					927.1,205.2 902.2,172.1 902.4,171.9 902.1,171.9 895.8,171.9 895,172.5 855.2,172.5 853.6,172.5 853.5,172.5 854.5,173.9 
					808.3,300.8 803.3,314.3 803.2,314.3 752.8,445.2 793.9,445.2 798.7,445.2 799.4,445.2 887.1,218.5 				"/>
				<rect x="175.6" y="157.6" class="st3" width="114.8" height="114.8"/>
				<polygon class="st3" points="285.3,267.2 285.3,206.4 285.3,162.8 180.8,162.8 180.8,267.2 235.7,267.2 				"/>
			</g>
		</g>
		<g>
			<path class="st3" d="M1128.5,470.6h-72.9V582h72.9c24.9,0,38.6-13.7,38.6-38.6v-34.3C1167.1,484.3,1153.4,470.6,1128.5,470.6z
				 M1084.7,557v-61.5h38.2c10.2,0,15.1,4.9,15.1,15.1v31.2c0,10.2-4.9,15.1-15.1,15.1H1084.7z"/>
			<rect x="1211.9" y="470.6" class="st3" width="29.4" height="111.5"/>
			<path class="st3" d="M1367.8,470.6h-50.3c-21.4,0-31.4,10-31.4,31.4v48.7c0,21.4,10,31.4,31.4,31.4h50.3
				c21.4,0,31.4-10,31.4-31.4V519H1343v22.5h28.1v5.1c0,8.9-2.8,11.7-11.7,11.7h-32.5c-8.9,0-11.7-2.8-11.7-11.7v-40
				c0-8.8,2.8-11.7,11.7-11.7h31.5c8.9,0,11.7,2.8,11.7,11.7v3.8h29.1V502C1399.2,480.5,1389.2,470.6,1367.8,470.6z"/>
			<rect x="1444" y="470.6" class="st3" width="29.4" height="111.5"/>
			<polygon class="st3" points="1518.2,496.5 1556,496.5 1556,582 1585.1,582 1585.1,496.5 1622.8,496.5 1622.8,470.6 1518.2,470.6 
							"/>
			<path class="st3" d="M1717.1,470.6L1667.7,582h30.9l8-20.1h51.1l8,20.1h32.3l-49.2-111.5H1717.1z M1715.3,539.7l16.6-41.8
				l16.8,41.8H1715.3z"/>
			<polygon class="st3" points="1871.7,470.6 1842.7,470.6 1842.7,582 1930.4,582 1930.4,556.1 1871.7,556.1 			"/>
			<path class="st3" d="M2060.7,515.2l-47.1-4.4c-6.4-0.6-7.7-2-7.7-7.6v-2c0-5.8,1.9-7.6,7.6-7.6h33.7c5.8,0,7.6,1.9,7.6,7.6v3.4
				h28.1v-9.5c0-16.7-7.8-24.5-24.5-24.5h-57.1c-16.7,0-24.5,7.8-24.5,24.5v15c0,15.9,7.1,23,24.4,24.5l47.1,4.4
				c6.3,0.6,7.7,2,7.7,7.6v4.8c0,5.8-1.9,7.6-7.6,7.6H2011c-5.8,0-7.6-1.9-7.6-7.6v-5.3h-28.1v11.4c0,16.7,7.8,24.5,24.5,24.5h60.9
				c16.7,0,24.5-7.8,24.5-24.5v-17.8C2085.2,523.8,2078.1,516.7,2060.7,515.2z"/>
		</g>
	</g>
	<g>
	</g>
	<g>
	</g>
	<g>
	</g>
	<g>
	</g>
	<g>
	</g>
	<g>
	</g>
</g>
</svg>
